<svg xmlns="http://www.w3.org/2000/svg" width="32" height="32" viewBox="0 0 32 32"><path d="M20.571 26.786q-.75-4.304-2.5-8.893h-.036l-.036.018q-.286.107-.768.295t-1.804.875-2.446 1.464-2.339 2.045-1.839 2.643l-.268-.196q3.286 2.679 7.464 2.679 2.357 0 4.571-.929zm-3.303-10.84q-.375-.875-.946-1.982-5.554 1.661-12.018 1.661-.018.125-.018.375 0 2.214.786 4.223t2.214 3.598q.893-1.589 2.205-2.973t2.545-2.223 2.33-1.446 1.777-.857l.661-.232q.071-.018.232-.063t.232-.08zm-1.911-3.785Q13.214 8.357 11 5.411 8.536 6.572 6.821 8.732t-2.286 4.857q5.393 0 10.821-1.429zm12.214 5.696q-3.75-1.071-7.304-.518 1.554 4.268 2.286 8.375 1.982-1.339 3.304-3.384t1.714-4.473zM13.196 4.625q-.018 0-.036.018.018-.018.036-.018zm10.536 2.589Q20.428 4.285 16 4.285q-1.357 0-2.768.339 2.339 3.036 4.393 6.821 1.232-.464 2.321-1.08t1.723-1.098 1.17-1.018.67-.723zm3.982 8.661q-.054-4.143-2.661-7.321l-.018.018q-.161.214-.339.438t-.777.795-1.268 1.08-1.786 1.161-2.348 1.152q.446.946.786 1.696.036.107.116.313t.134.295q.643-.089 1.33-.125t1.313-.036 1.232.027 1.143.071 1.009.098.857.116.652.107.446.08zm2 .125q0 3.732-1.839 6.884t-4.991 4.991T16 29.714t-6.884-1.839-4.991-4.991T2.286 16t1.839-6.884 4.991-4.991T16 2.286t6.884 1.839 4.991 4.991T29.714 16z"/></svg>
