<svg xmlns="http://www.w3.org/2000/svg" width="32" height="32" viewBox="0 0 32 32"><path d="M12.571 20.596c0 .477-.075.964-.223 1.464s-.405.952-.768 1.357-.795.607-1.295.607-.932-.202-1.295-.607c-.363-.405-.62-.857-.768-1.357s-.223-.988-.223-1.464.075-.964.223-1.464.405-.952.768-1.357.795-.607 1.295-.607.932.202 1.295.607.62.857.768 1.357.223.988.223 1.464zm11.429 0c0 .477-.075.964-.223 1.464s-.405.952-.768 1.357-.795.607-1.295.607-.932-.202-1.295-.607-.62-.857-.768-1.357-.223-.988-.223-1.464.075-.964.223-1.464.405-.952.768-1.357.795-.607 1.295-.607.932.202 1.295.607.62.857.768 1.357.223.988.223 1.464zm2.857 0c0-1.429-.411-2.643-1.232-3.643s-1.934-1.5-3.339-1.5c-.488 0-1.648.125-3.482.375-.845.13-1.78.196-2.804.196s-1.959-.066-2.804-.196c-1.809-.25-2.97-.375-3.482-.375-1.405 0-2.518.5-3.339 1.5s-1.232 2.214-1.232 3.643c0 1.048.191 1.961.571 2.741s.862 1.393 1.446 1.839 1.309.804 2.179 1.071 1.702.443 2.5.527 1.684.125 2.661.125h3c.977 0 1.863-.041 2.661-.125s1.63-.259 2.5-.527 1.595-.625 2.179-1.071 1.066-1.059 1.446-1.839.571-1.695.571-2.741zm4-3.142c0 2.464-.363 4.434-1.089 5.911-.452.916-1.08 1.709-1.884 2.375s-1.643 1.179-2.518 1.536-1.887.639-3.036.848-2.17.339-3.063.393-1.887.08-2.982.08c-.929 0-1.773-.018-2.536-.054s-1.639-.111-2.634-.223-1.902-.291-2.723-.536-1.638-.55-2.446-.92-1.53-.852-2.161-1.446-1.143-1.28-1.536-2.054c-.738-1.464-1.107-3.434-1.107-5.911 0-2.821.809-5.179 2.429-7.071-.321-.977-.482-1.988-.482-3.036 0-1.38.304-2.679.911-3.893 1.286 0 2.416.236 3.393.705s2.102 1.205 3.375 2.205c1.75-.416 3.589-.625 5.518-.625 1.762 0 3.429.191 5 .571 1.25-.977 2.363-1.696 3.339-2.161s2.102-.696 3.375-.696c.607 1.214.911 2.513.911 3.893 0 1.036-.161 2.036-.482 3 1.62 1.904 2.429 4.273 2.429 7.107z"/></svg>
